<?xml version="1.0" encoding="UTF-8"?>
<!-- Generator: Adobe Illustrator 25.2.0, SVG Export Plug-In . SVG Version: 6.00 Build 0)  -->
<svg xmlns="http://www.w3.org/2000/svg" xmlns:xlink="http://www.w3.org/1999/xlink" version="1.1" id="Capa_1" x="0px" y="0px" viewBox="0 0 500 500" style="enable-background:new 0 0 500 500;" xml:space="preserve" width="512" height="512">
<g>
	<g>
		<path d="M419.216,268.791c8.651,2.722,14.124,8.575,18.168,16.112c3.98,7.416,6.108,15.404,7.14,23.647    c1.183,9.452,1.919,18.961,2.795,28.45c0.776,8.403,1.9,16.711,4.99,24.66c1.921,4.939,5.117,8.613,9.766,11.083    c0.816,0.434,1.643,0.866,2.394,1.399c1.661,1.18,1.531,3.133-0.346,3.944c-1.122,0.484-2.391,0.736-3.617,0.852    c-10.01,0.946-17.689-3.225-23.627-11.002c-5.213-6.828-8.158-14.722-10.029-22.977c-2.779-12.264-5.109-24.63-7.868-36.9    c-1.815-8.067-4-16.054-6.113-24.051c-1.235-4.674-4.06-8.327-7.912-11.429c-0.052,0.45-0.123,0.791-0.125,1.132    c-0.094,15.133-0.334,30.268-0.22,45.4c0.082,10.875,0.793,21.727,2.71,32.474c0.791,4.436,2.726,8.313,5.053,12.065    c0.679,1.095,1.247,2.256,0.433,3.486c-0.341,0.516-0.921,1.109-1.473,1.205c-1.402,0.245-2.849,0.275-4.28,0.309    c-7.398,0.175-14.796,0.335-22.195,0.477c-2.773,0.054-5.549,0.091-8.321,0.034c-0.563-0.011-1.531-0.416-1.581-0.749    c-0.083-0.549,0.317-1.278,0.71-1.775c3.967-5.011,7.475-10.301,8.764-16.663c0.852-4.205,1.343-8.495,1.8-12.768    c1.92-17.938,1.691-35.955,1.821-53.954c0.252-34.711,0.487-69.422,0.598-104.133c0.018-5.767-0.521-11.544-1.009-17.3    c-0.284-3.351-1.885-6.232-3.976-8.869c-0.501-0.632-0.877-1.809-0.622-2.47c0.256-0.663,1.358-1.383,2.113-1.411    c11.737-0.431,23.491-1.418,35.19,0.494c6.448,1.054,11.63,4.336,15.793,9.305c4.937,5.892,7.947,12.758,10.154,20.037    c3.622,11.945,5.771,24.11,5.429,36.634c-0.277,10.14-2.208,19.897-6.557,29.16c-5.247,11.174-13.514,19.046-24.935,23.654    C419.984,268.453,419.74,268.564,419.216,268.791z M405.045,266.606c0.178,0.116,0.356,0.231,0.534,0.347    c2.66-2.263,5.462-4.385,7.926-6.845c1.398-1.395,2.516-3.23,3.288-5.066c2.538-6.033,4.332-12.328,4.951-18.845    c0.979-10.312,1.847-20.642,2.428-30.983c0.597-10.63,0.609-21.277-0.992-31.855c-0.633-4.18-1.576-8.278-3.675-12    c-1.943-3.446-4.628-6.095-8.426-7.482c-0.894-0.326-1.519-0.228-1.764,0.808c-0.265,1.122-0.713,2.228-0.795,3.361    c-0.444,6.134-1.001,12.27-1.14,18.414c-0.249,11.008-0.082,22.026-0.355,33.034c-0.385,15.493-1.007,30.98-1.539,46.47    C405.363,259.512,405.193,263.059,405.045,266.606z"/>
		<path d="M303.25,196.915c-0.645,3.29-1.354,6.569-1.923,9.872c-2.864,16.638-5.731,33.276-8.503,49.93    c-0.705,4.237-1.015,8.539-1.602,12.798c-0.333,2.418,0.297,4.605,1.36,6.682c0.925,1.807,1.982,3.554,3.087,5.258    c2.115,3.26,0.585,4.489-2.585,5.286c-1.054,0.265-2.21,0.166-3.319,0.157c-6.522-0.053-13.045-0.12-19.567-0.203    c-0.874-0.011-1.772-0.031-2.616-0.229c-1.998-0.469-2.976-2.443-1.752-4.057c3.142-4.143,3.176-8.799,2.866-13.639    c-0.687-10.746-2.545-21.305-4.845-31.8c-0.054-0.246-0.135-0.486-0.203-0.729c-0.152,0.006-0.304,0.011-0.456,0.017    c0,1.787,0.068,3.578-0.01,5.362c-0.948,21.521,0.206,43.033,0.321,64.549c0.029,5.437,0.97,10.781,3.353,15.759    c0.496,1.037,1.254,1.955,1.696,3.01c0.328,0.783,0.68,1.85,0.388,2.511c-0.262,0.593-1.37,1.082-2.137,1.131    c-2.258,0.146-4.532,0.074-6.8,0.045c-3.563-0.046-7.128-0.076-10.688-0.214c-2.001-0.077-2.993-1.615-1.949-3.236    c4.93-7.655,5.993-16.35,6.7-25.075c0.71-8.759,1.285-17.549,1.405-26.332c0.365-26.608,0.541-53.219,0.646-79.83    c0.021-5.302-0.48-10.618-0.984-15.903c-0.161-1.687-1.052-3.323-1.718-4.937c-0.659-1.596-0.27-2.834,1.316-2.876    c5.256-0.14,10.518-0.11,15.777-0.1c1.223,0.002,1.756,0.865,1.279,1.883c-1.938,4.14-0.859,8.255-0.094,12.388    c3.714,20.055,8.863,39.79,13.306,59.682c0.715,3.203,1.406,6.411,2.113,9.616c0.068,0.307,0.168,0.606,0.36,1.286    c0.439-3.358,0.776-6.342,1.227-9.308c1.44-9.463,2.889-18.925,4.398-28.377c2.684-16.805,5.264-33.629,8.223-50.386    c0.846-4.795-0.301-8.825-2.39-12.874c-0.191-0.37-0.417-0.72-0.615-1.086c-1.39-2.569-0.466-4.211,2.483-4.08    c6.609,0.291,13.212,0.712,19.816,1.102c1.007,0.059,2.004,0.271,3.011,0.353c1.117,0.091,1.165,0.698,0.812,1.53    c-0.198,0.468-0.398,0.939-0.642,1.383c-2.584,4.698-3.627,9.792-3.685,15.083c-0.132,12.029-0.333,24.061-0.212,36.089    c0.234,23.23,0.81,46.457,0.973,69.687c0.1,14.25-0.414,28.504-0.437,42.756c-0.012,7.581,0.067,15.186,1.36,22.703    c0.802,4.662,1.867,9.233,4.031,13.502c1.342,2.647,0.41,4.239-2.555,4.384c-5.823,0.286-11.655,0.401-17.478,0.684    c-3.233,0.157-6.452,0.581-9.685,0.751c-2.613,0.137-3.572-1.214-2.782-3.691c0.267-0.836,0.657-1.635,0.891-2.478    c1.082-3.912,2.61-7.775,3.092-11.763c1.183-9.778,2.141-19.6,2.717-29.431c1.299-22.175,2.35-44.362,2.566-66.586    c0.15-15.409,0.666-30.814,1.016-46.221c0.013-0.582,0.002-1.165,0.002-1.747C303.49,196.94,303.37,196.928,303.25,196.915z"/>
		<path d="M226.847,233.032c-0.731,3.843-1.517,7.677-2.182,11.531c-2.666,15.452-5.351,30.901-7.904,46.372    c-0.835,5.059-1.262,10.184-1.94,15.27c-0.292,2.192,0.429,4.134,1.347,5.996c0.896,1.819,1.95,3.574,3.074,5.264    c2.164,3.254,0.742,4.638-2.697,5.402c-1.021,0.227-2.121,0.143-3.184,0.134c-6.476-0.054-12.952-0.122-19.428-0.203    c-0.875-0.011-1.77-0.024-2.619-0.207c-2.09-0.451-3.101-2.435-1.843-4.11c3.053-4.061,3.172-8.61,2.87-13.365    c-0.703-11.066-2.605-21.936-5.283-32.751c-0.032,0.547-0.07,1.093-0.097,1.64c-0.833,17.258-0.468,34.515-0.037,51.774    c0.14,5.597,0.023,11.202,0.207,16.797c0.176,5.344,1.014,10.592,3.365,15.48c0.498,1.036,1.248,1.955,1.706,3.005    c0.324,0.744,0.721,1.819,0.415,2.381c-0.35,0.642-1.431,1.204-2.216,1.233c-3.234,0.121-6.477,0.043-9.716,0.008    c-2.545-0.027-5.092-0.047-7.634-0.163c-2.152-0.098-3.126-1.643-1.988-3.404c4.32-6.683,5.71-14.231,6.301-21.913    c0.817-10.606,1.57-21.237,1.749-31.868c0.415-24.663,0.521-49.332,0.633-73.998c0.027-5.866-0.259-11.747-0.72-17.596    c-0.172-2.189-1.153-4.344-1.952-6.444c-0.645-1.698-0.329-2.94,1.316-2.984c5.256-0.14,10.518-0.106,15.777-0.09    c1.242,0.004,1.712,0.909,1.243,1.909c-1.943,4.141-0.844,8.256-0.08,12.387c3.71,20.056,8.861,39.79,13.306,59.682    c0.726,3.248,1.417,6.504,2.131,9.754c0.057,0.258,0.166,0.504,0.307,0.92c0.638-4.497,1.219-8.812,1.866-13.118    c2.489-16.555,4.918-33.12,7.532-49.656c1.465-9.27,3.265-18.488,4.864-27.738c0.161-0.929,0.199-1.995-0.097-2.864    c-0.936-2.742-1.894-5.499-3.152-8.101c-1.48-3.059-0.727-4.597,2.648-4.44c6.516,0.304,13.026,0.717,19.538,1.108    c1.053,0.063,2.096,0.266,3.148,0.372c0.869,0.088,0.962,0.621,0.734,1.279c-0.195,0.565-0.457,1.114-0.745,1.639    c-2.558,4.656-3.632,9.704-3.663,14.947c-0.091,15.408-0.207,30.817-0.075,46.224c0.172,19.944,0.72,39.886,0.828,59.83    c0.077,14.204-0.416,28.411-0.438,42.617c-0.012,7.628,0.069,15.28,1.385,22.84c0.795,4.568,1.845,9.05,3.957,13.238    c1.41,2.796,0.474,4.352-2.676,4.498c-5.731,0.267-11.47,0.384-17.201,0.661c-3.14,0.152-6.275,0.466-9.405,0.773    c-3.163,0.311-4.058-1.786-3.074-4.003c0.318-0.716,0.601-1.458,0.81-2.212c1.069-3.868,2.549-7.685,3.068-11.628    c1.104-8.388,1.944-16.828,2.462-25.273c1.447-23.605,2.583-47.223,2.829-70.881c0.16-15.409,0.668-30.814,1.019-46.221    c0.013-0.568,0.002-1.137,0.002-1.705C227.107,233.055,226.977,233.043,226.847,233.032z"/>
		<path d="M42.159,305.207c-0.038-1.619-0.091-3.238-0.149-4.857c-0.039-1.077,0.048-2.156,1.325-2.41    c1.341-0.267,1.967,0.686,2.207,1.795c0.682,3.161,1.424,6.319,1.883,9.516c1.46,10.167,2.742,20.359,4.21,30.524    c0.933,6.46,2.967,12.581,6.13,18.322c3.591,6.52,10.366,9.829,17.795,9.394c9.476-0.554,17.886-8.743,19.929-18.304    c2.216-10.367,1.987-20.642-0.139-30.988c-3.698-17.997-9.928-35.118-17.488-51.8c-6.853-15.121-13.679-30.255-20.565-45.361    c-5.835-12.802-10.131-26.122-13.27-39.807c-2.275-9.918-1.016-19.638,3.508-28.657c4.212-8.398,11.6-12.891,20.732-14.737    c7.963-1.61,14.812,0.537,20.871,5.725c1.047,0.897,2.09,1.801,3.17,2.657c3.29,2.608,8.105,2.345,10.945-0.746    c1.135-1.235,2.135-2.593,3.28-3.841c0.621-0.661,1.745-0.379,2.142,0.437c0.119,0.244,0.204,0.49,0.217,0.74    c0.107,1.98-0.003,3.972-0.028,5.959c-0.22,18.094-0.436,36.189-0.666,54.283c-0.016,1.229-0.039,2.458-0.095,3.686    c-0.05,1.096,0.112,2.244-0.473,3.233c-0.076,0.128-0.165,0.254-0.296,0.325c-0.302,0.164-0.676-0.038-0.911-0.288    c-0.539-0.574-0.737-1.391-0.784-2.177c-0.057-0.957,0-1.914-0.068-2.873c-0.073-1.02-0.173-2.038-0.295-3.053    c-0.29-2.413-0.702-4.81-1.161-7.196c-0.014-0.072-0.028-0.144-0.042-0.216c-0.383-1.975-0.784-3.947-1.146-5.926    c-1.248-6.817-2.449-13.668-4.236-20.353c-1.207-4.516-3.057-8.946-5.221-13.101c-3.374-6.478-9.095-10.085-16.253-11.273    c-4.579-0.76-10.527,2.766-12.477,7.562c-1.03,2.533-1.659,5.31-1.98,8.034c-0.837,7.101,0.402,13.966,2.575,20.764    c3.607,11.285,9.368,21.52,15.014,31.822c10.223,18.654,19.188,37.901,25.972,58.058c4.896,14.547,7.771,29.613,8.699,44.975    c0.767,12.692-0.91,24.949-7.306,36.216c-4.764,8.392-10.886,15.354-20.424,18.387c-7.464,2.373-15.102,3.083-22.889,1.719    c-2.18-0.382-4.409-0.573-6.623-0.643c-3.315-0.106-5.696,1.39-6.832,4.59c-0.618,1.741-1.145,3.514-1.714,5.271    c-0.214,0.66-0.412,1.325-0.649,1.975c-0.346,0.949-0.971,1.625-2.047,1.553c-1.141-0.077-1.717-0.874-1.881-1.917    c-0.172-1.092-0.279-2.203-0.31-3.308C43.993,365.99,42.435,316.867,42.159,305.207z"/>
		<path d="M159.32,245.516c-0.191-14.207-0.289-28.416-0.626-42.62c-0.115-4.842-0.755-9.679-1.307-14.501    c-0.326-2.854-1.451-5.441-3.459-7.577c-0.221-0.236-0.41-0.501-0.614-0.753c-0.722-0.894-1.363-1.854-0.743-3.025    c0.614-1.16,1.748-0.995,2.828-0.904c5.254,0.438,10.502,0.974,15.765,1.251c2.943,0.155,5.91-0.115,8.865-0.22    c0.932-0.033,1.937-0.235,2.397,0.857c0.429,1.019-0.299,1.627-0.984,2.216c-3.072,2.641-4.292,6.298-5.377,9.994    c-1.43,4.873-2.001,9.903-2,14.95c0.002,21.288,0.066,42.576,0.214,63.864c0.089,12.728,0.389,25.456-0.769,38.154    c-0.844,9.246-2.581,18.317-5.799,27.051c-1.796,4.875-4.439,9.279-8.249,12.86c-6.617,6.219-14.302,7.765-22.864,4.851    c-4.43-1.507-7.533-4.567-9.658-8.686c-2.719-5.27-3.804-10.976-4.53-16.782c-1.437-11.485-1.074-23.002-0.701-34.526    c0.446-13.784,0.807-27.571,1.189-41.358c0.202-7.28-0.081-14.529-1.54-21.693c-0.592-2.906-1.512-5.616-3.909-7.619    c-0.412-0.344-0.765-1.214-0.609-1.645c0.136-0.376,1.033-0.675,1.591-0.671c7.449,0.059,14.898,0.17,22.346,0.289    c1.292,0.021,2.583,0.17,3.876,0.202c1.019,0.025,1.403,0.602,1.412,1.501c0.005,0.452-0.06,0.936-0.223,1.355    c-2.61,6.718-3.339,13.823-4.252,20.881c-2.804,21.663-3.057,43.469-3.512,65.26c-0.152,7.262-0.292,14.533-0.07,21.789    c0.102,3.331,0.787,6.726,1.751,9.928c1.521,5.049,4.545,5.511,8.117,1.61c2.375-2.593,3.453-5.74,4.26-9.052    c3.154-12.941,4.79-26.107,5.782-39.363C159.11,277.451,159.446,261.49,159.32,245.516z"/>
		<path d="M351.769,162.053c-0.356,25.508-0.71,50.925-1.071,76.773c1.138-0.787,2.011-1.285,2.761-1.927    c2.681-2.296,4.7-5.128,6.094-8.339c1.416-3.26,2.59-6.625,3.864-9.946c0.132-0.345,0.216-0.708,0.336-1.057    c0.385-1.118,0.954-2.067,2.331-1.958c1.362,0.107,1.892,1.139,2.05,2.278c0.228,1.645,0.397,3.317,0.376,4.974    c-0.185,14.206-0.418,28.411-0.645,42.617c-0.007,0.459,0.023,1.003-0.203,1.354c-0.372,0.577-0.896,1.376-1.435,1.442    c-0.62,0.076-1.552-0.374-1.94-0.898c-0.554-0.748-0.756-1.764-1.073-2.678c-0.939-2.706-1.718-5.478-2.822-8.114    c-1.945-4.641-5.131-7.976-9.699-10.444c-0.485,24.688-0.968,49.255-1.457,74.137c1.356-0.519,2.702-0.919,3.945-1.529    c9.22-4.529,15.408-11.767,18.886-21.372c0.629-1.736,1.122-3.523,1.636-5.298c0.264-0.91,0.63-1.717,1.719-1.67    c1.153,0.05,1.524,0.95,1.655,1.912c0.149,1.099,0.25,2.211,0.266,3.319c0.123,8.744,0.213,17.489,0.338,26.233    c0.015,1.049-0.435,1.572-1.443,1.62c-2.633,0.125-5.265,0.291-7.9,0.328c-12.632,0.178-25.265,0.32-37.897,0.472    c-0.964,0.012-1.929,0.004-2.894-0.003c-0.943-0.007-1.323-0.686-0.9-1.806c0.424-1.123,0.827-2.289,1.469-3.288    c3.096-4.817,3.892-10.275,4.257-15.775c0.686-10.341,1.297-20.693,1.647-31.05c0.612-18.13,1.262-36.266,1.403-54.403    c0.108-13.876-0.505-27.759-0.88-41.637c-0.114-4.212-0.557-8.421-2.122-12.387c-0.333-0.843-0.863-1.586-1.405-2.306    c-0.323-0.429-1.364-1.381-1.264-1.966c0.023-0.135,0.099-0.255,0.182-0.365c0.741-0.983,1.774-1.071,2.905-1.049    c12.261,0.238,24.522,0.476,36.782,0.75c1.521,0.034,3.048,0.206,4.553,0.437c1.856,0.284,2.563,1.096,2.675,2.964    c0.122,2.031,0.253,4.067,0.244,6.1c-0.034,7.358-0.122,14.715-0.201,22.072c-0.005,0.458,0.024,1-0.2,1.35    c-0.269,0.419-0.768,0.886-1.215,0.939c-0.446,0.053-1.038-0.287-1.399-0.631c-0.301-0.287-0.382-0.822-0.525-1.258    c-1.881-5.754-3.711-11.526-5.651-17.261c-1.018-3.011-2.424-5.878-5.108-7.759c-1.404-0.984-3.031-1.736-4.659-2.292    C356.137,162.974,354.032,162.607,351.769,162.053z"/>
	</g>
	<path d="M370.104,407.689c-12.952-0.249-25.566-2.615-37.819-6.704c-7.708-2.573-15.232-5.694-22.842-8.561   c-8.254-3.11-16.674-5.501-25.546-6.009c-6.133-0.351-11.722,1.145-16.792,4.632c-0.361,0.249-1.113,0.526-1.474,0.18   c-0.375-0.359-0.101-1.123,0.119-1.542c1.443-2.755,3.586-4.923,6.017-6.81c7.74-6.01,16.687-8.792,26.3-9.767   c12.553-1.274,24.693,0.992,36.719,4.275c9.271,2.532,18.5,5.243,27.843,7.474c10.043,2.398,20.276,3.14,30.6,2.179   c8.326-0.775,15.724-3.929,22.553-8.604c0.687-0.47,1.347-1.01,2.096-1.347c0.539-0.242,1.312-0.429,1.781-0.211   c0.355,0.165,0.559,1.011,0.55,1.548c-0.056,3.271-1.307,6.138-3.291,8.666c-5.423,6.91-12.213,12.042-20.302,15.478   C388.143,406.165,379.299,407.799,370.104,407.689z"/>
	<g>
		<path d="M359.715,92.581c0.312-0.239,0.542-0.395,0.747-0.577c9.721-8.63,20.914-10.525,33.284-7.44    c9.243,2.306,15.605,7.905,19.487,16.482c0.836,1.848,1.592,3.732,2.419,5.679c1.71-0.385,3.397-0.809,5.103-1.141    c11.541-2.249,20.586,3.918,22.746,15.472c0.363,1.94,0.516,3.834-0.366,5.703c-0.815,1.727-2.071,2.622-4.025,2.538    c-9.567-0.411-19.136-0.787-28.702-1.204c-9.52-0.415-19.04-0.861-28.559-1.296c-13.493-0.617-26.987-1.223-40.48-1.858    c-7.808-0.368-15.615-0.77-23.42-1.192c-1.38-0.075-2.76-0.27-4.122-0.508c-1.464-0.257-2.348-1.146-2.602-2.661    c-1.089-6.492-0.243-12.802,1.752-19.006c1.825-5.673,4.738-10.665,9.494-14.362c11.271-8.761,25.927-7.368,35.433,3.288    C358.486,91.152,359.054,91.82,359.715,92.581z"/>
		<path d="M89.867,408.182c1.229-2.504,2.257-4.936,3.565-7.206c6.319-10.969,16.182-15.21,28.561-12.465    c5.732,1.271,10.714,3.978,15.261,7.595c0.393,0.312,0.797,0.611,1.173,0.898c2.055-1.885,3.939-3.873,6.08-5.53    c8.208-6.351,17.495-8.398,27.47-5.676c9.162,2.5,14.507,8.673,15.381,18.349c0.704,7.804-0.631,15.182-4.536,22.053    c-0.955,1.68-2.134,2.617-4.165,2.603c-4.301-0.03-8.604,0.159-12.906,0.148c-31.51-0.08-63.021-0.174-94.531-0.307    c-3.233-0.014-6.468-0.252-9.695-0.49c-2.93-0.215-3.672-1.016-3.823-3.983c-0.308-6.049,2.26-10.77,6.965-14.353    c5.94-4.524,12.598-5.161,19.635-3.256C86.17,407.067,88.019,407.642,89.867,408.182z"/>
		<path d="M276.771,438.938c-11.535-0.356-23.7-0.719-35.864-1.119c-1.707-0.056-3.405-0.359-5.112-0.427    c-2.302-0.092-3.229-1.04-3.035-3.695c0.715-9.773,4.533-17.061,16.077-20.345c6.151-1.75,12.09-1.08,17.869,1.485    c1.943,0.862,3.883,1.744,5.757,2.745c0.946,0.505,1.641,0.49,2.518-0.123c5.37-3.75,11.348-5.765,17.891-6.046    c4.966-0.213,9.767,0.575,14.371,2.502c6.895,2.886,9.979,8.473,10.949,15.513c0.239,1.733,0.273,3.503,0.276,5.257    c0.005,2.781-1.618,4.291-4.413,4.278C301.839,438.905,289.621,438.938,276.771,438.938z"/>
	</g>
	<g>
		<g>
			<path d="M12.711,221.443c-0.421-2.85-0.46-5.757,0.086-8.586c0.636-3.292,1.857-6.117,3.75-8.715     c1.999-2.744,4.602-4.654,7.977-5.385c3.246-0.703,6.032,0.175,8.385,2.485c2.877,2.825,3.927,6.44,4.221,10.292     c0.447,5.854,0.725,11.721,1.105,17.58c0.326,5.02,1.169,10.023,2.77,14.801c0.734,2.192,1.625,4.331,2.678,6.39     c0.534,1.045,1.11,2.069,1.725,3.069c0.743,1.207,1.793,2.222,1.95,3.705c0.127,1.198-0.765,1.918-1.943,1.676     c-1.798-0.37-3.693-0.679-5.295-1.506c-2.78-1.435-5.555-3.002-8.005-4.93c-9.367-7.371-16.34-16.429-18.949-28.34     C12.978,223.123,12.832,222.259,12.711,221.443z"/>
			<path d="M34.658,283.84c1.381,0.478,1.457,1.381,0.401,2.422c-0.691,0.682-1.396,1.35-2.11,2.007     c-3.316,3.052-5.49,6.802-6.876,11.061c-1.258,3.865-2.524,7.728-3.9,11.551c-1.006,2.795-2.367,5.424-4.435,7.62     c-5.004,5.317-11.727,4.334-14.944-2.223c-2.609-5.317-2.484-10.72-0.255-16.117c3.923-9.5,15.93-17.522,26.215-17.557     C29.394,282.593,32.765,283.185,34.658,283.84z"/>
			<path d="M32.369,269.061c-4.091-0.277-7.944,0.98-11.869,1.812c-3.386,0.718-6.784,1.462-10.216,1.852     c-1.776,0.201-3.727-0.059-5.442-0.605c-4.729-1.505-6.268-6.442-3.389-10.498c2.293-3.229,5.715-4.624,9.426-5.298     c5.244-0.953,10.175,0.377,14.968,2.425c3.563,1.522,6.799,3.563,9.635,6.189c0.893,0.827,2.296,1.675,1.723,3.175     c-0.575,1.504-2.135,0.905-3.314,1.024C33.391,269.186,32.877,269.09,32.369,269.061z"/>
		</g>
		<g>
			<path d="M498.729,212.131c-0.051,5.854-2.091,10.858-4.992,15.479c-4.251,6.769-9.982,12.518-16.848,16.63     c-3.714,2.224-7.68,4.051-11.852,5.225c-1.952,0.549-3.94,0.946-5.951,1.198c-1.159,0.145-3.233,0.439-3.692-1.031     c-0.184-0.59,0.134-1.553,0.568-2.084c2.419-2.966,5.175-5.684,7.372-8.799c3.963-5.619,6.08-12.102,7.93-18.666     c1.441-5.114,2.832-10.246,4.453-15.304c0.566-1.765,1.545-3.495,2.696-4.958c4.487-5.702,11.473-5.709,16.166-0.11     C497.644,203.369,498.582,207.747,498.729,212.131z"/>
			<path d="M490.178,300.923c0.553,3.367,0.357,6.857-0.9,10.03c-0.847,2.136-2.084,4.1-3.76,5.883     c-4.019,4.276-9.746,3.946-13.307-0.704c-2.028-2.648-3-5.742-3.461-8.974c-0.561-3.936-1.05-7.891-1.354-11.854     c-0.432-5.62-2.363-10.608-5.717-15.101c-1.014-1.359-0.521-2.679,1.144-3.001c2.959-0.572,5.793,0.006,8.467,1.173     c8.683,3.792,14.947,9.978,18.07,19.03C489.75,298.537,489.981,299.724,490.178,300.923z"/>
			<path d="M482.261,254.001c5.69-0.008,10.489,1.268,14.34,4.955c1.167,1.118,2.206,2.55,2.815,4.038     c1.873,4.578-0.94,8.921-5.87,9.357c-2.357,0.208-4.624-0.204-6.768-1.142c-4.061-1.777-8.041-3.749-12.148-5.409     c-2.631-1.064-5.425-1.725-8.153-2.544c-0.75-0.226-1.548-0.304-2.281-0.57c-1.42-0.516-1.666-1.638-0.567-2.646     c0.641-0.588,1.362-1.121,2.122-1.542C471.031,255.574,476.717,254.152,482.261,254.001z"/>
		</g>
	</g>
	<g>
		<path d="M167.971,120.829c-9.229,0.281-19.14,3.555-27.14,11.561c-3.135,3.137-5.519,6.815-7.427,10.816    c-0.386,0.81-0.642,2.224-1.87,1.825c-1.338-0.434-0.675-1.775-0.444-2.667c1.329-5.14,4.006-9.542,7.765-13.244    c10.572-10.412,23.452-14.318,37.974-12.756c12.251,1.317,22.798,6.407,30.598,16.16c7.581,9.479,9.948,20.166,6.141,31.93    c-0.65,2.008-1.498,2.68-2.699,2.299c-1.107-0.351-1.317-1.325-0.823-3.342c3.024-12.362-0.841-22.622-9.772-31.195    C192.511,124.767,181.675,120.821,167.971,120.829z"/>
		<g>
			<path d="M269.8,134.511c-0.733,0.058-1.473-0.024-2.216-0.048c-1.192-0.039-2.392-0.062-3.575,0.104     c-0.047,0.007-0.094,0.013-0.141,0.021c-1.681,0.257-3.482,0.804-4.86,1.758c-3.018,2.09-6.095,2.458-9.475,1.295     c-1.398-0.481-2.807-0.932-4.209-1.402c-1.687-0.566-3.164-0.272-4.481,0.966c-1.247,1.171-2.459,2.415-3.855,3.382     c-1.612,1.116-3.308,2.293-5.147,2.859c-3.603,1.109-7.937-1.326-9.191-4.896c-0.179-0.509-0.084-1.333,0.236-1.72     c0.205-0.248,1.137-0.12,1.6,0.117c0.898,0.46,1.69,1.123,2.533,1.692c1.754,1.183,3.584,1.294,5.318,0.08     c1.698-1.19,3.453-2.381,4.872-3.868c3.2-3.353,6.905-4.009,11.163-2.675c0.837,0.262,1.703,0.435,2.543,0.689     c2.055,0.621,3.855,0.29,5.826-0.718c1.989-1.017,4.195-1.503,6.424-1.512c1.182-0.005,2.365,0.093,3.532,0.287     c1.335,0.221,3.052,0.281,3.997,1.4c0.313,0.37,0.523,0.851,0.552,1.336c0.007,0.123,0.003,0.251-0.048,0.363     c-0.096,0.212-0.336,0.321-0.564,0.364C270.362,134.437,270.073,134.49,269.8,134.511z"/>
			<path d="M230.569,106.81c-1.198,0-2.031-0.009-2.863,0.002c-2.592,0.034-4.507,1.161-5.701,3.495     c-0.673,1.316-1.335,2.646-2.119,3.896c-1.193,1.901-2.946,2.975-5.228,2.794c-2.411-0.19-4.086-1.627-5.224-3.663     c-0.035-0.062-0.06-0.128-0.079-0.199c-0.226-0.857,0.627-1.603,1.501-1.455c0.072,0.012,0.144,0.028,0.214,0.049     c0.689,0.202,1.31,0.624,1.979,0.907c1.222,0.518,2.662,0.106,3.387-1.006c0.747-1.145,1.4-2.357,2.035-3.57     c1.958-3.74,5.095-5.616,9.244-5.902c1.061-0.073,2.132-0.165,3.189-0.1c2.976,0.182,5.339-0.97,7.152-3.246     c3.345-4.201,8.099-5.81,13.001-7.13c0.662-0.178,1.48-0.06,2.145,0.162c0.363,0.121,0.781,0.763,0.759,1.146     c-0.02,0.355-0.532,0.819-0.933,0.992c-1.523,0.656-3.116,1.151-4.632,1.821c-2.626,1.162-4.8,2.845-6.415,5.312     C239.226,105.326,235.394,107.534,230.569,106.81z"/>
			<path d="M173.036,73.302c0.584,1.972,0.414,4.085-0.282,6.02c-0.295,0.82-0.646,1.643-1.128,2.379     c-1.933,2.953-2.1,5.862-0.976,9.095c0.71,2.042,1.259,4.169,1.609,6.303c0.773,4.707-2.772,9.022-7.204,8.888     c-0.01,0-0.02-0.001-0.031-0.001c-0.973-0.055-1.421-1.384-0.668-2.001c0.004-0.003,0.008-0.007,0.012-0.01     c4.479-3.568,4.754-4.419,3.063-9.946c-0.527-1.723-1.012-3.46-1.571-5.172c-0.82-2.511-0.594-4.926,0.561-7.271     c2.649-5.378,2.877-5.435,0.831-10.847c-0.713-1.885-1.024-3.933-1.409-5.928c-0.163-0.844-0.205-1.785,0.007-2.601     c0.128-0.494,0.804-1.068,1.318-1.166c0.386-0.073,1.145,0.453,1.327,0.885c1.525,3.617,2.994,7.259,4.39,10.928     C172.942,73.003,172.991,73.151,173.036,73.302z"/>
			<path d="M123.391,119.118c0.87,1.939,0.833,4.162,0.173,6.182c-0.276,0.845-0.572,1.681-0.949,2.479     c-0.057,0.121-0.158,0.221-0.288,0.307c-0.778,0.52-1.833-0.068-1.932-0.999c-0.007-0.065-0.011-0.131-0.012-0.196     c-0.027-1.555,0.168-3.117,0.086-4.666c-0.079-1.496-0.944-2.65-2.323-3.203c-1.618-0.649-3.307-1.127-4.98-1.631     c-0.883-0.266-1.813-0.375-2.693-0.647c-2.474-0.766-4.04-2.434-4.442-4.994c-0.293-1.866-0.393-3.767-0.497-5.657     c-0.127-2.299-0.985-3.958-3.173-5.084c-2.659-1.368-4.313-3.748-5.054-6.644c-0.201-0.786-0.1-1.773,0.202-2.532     c0.417-1.048,1.238-0.985,1.813,0.014c0.137,0.239,0.233,0.503,0.336,0.76c0.751,1.879,1.959,3.405,3.832,4.189     c4.644,1.943,6.593,5.526,6.606,10.385c0.002,0.877,0.052,1.758,0.141,2.631c0.248,2.426,0.759,2.684,3.656,3.283     c0.978,0.202,1.947,0.449,2.887,0.786c0.972,0.349,1.929,0.762,2.829,1.258C121.416,116.137,122.649,117.465,123.391,119.118z"/>
			<path d="M188.576,105.737c-0.501-1.509,1.159-1.613,2.112-1.937c1.785-0.607,2.746-1.867,3.083-3.594     c0.254-1.306,0.277-2.659,0.364-3.994c0.084-1.29,0.036-2.593,0.19-3.873c0.4-3.325,2.057-5.831,5.384-6.66     c3.006-0.75,4.666-2.366,5.6-5.357c0.899-2.876,2.939-5.223,5.216-7.23c0.612-0.539,1.512-0.923,2.323-1.024     c1.082-0.134,1.558,0.782,1.038,1.761c-0.192,0.361-0.488,0.669-0.747,0.994c-1.631,2.045-2.96,4.226-3.398,6.874     c-0.165,0.995-0.481,1.975-0.819,2.93c-0.79,2.227-2.326,3.738-4.564,4.512c-0.61,0.211-1.231,0.394-1.855,0.56     c-3.606,0.96-4.082,1.598-4.189,5.372c-0.059,2.074-0.01,4.18-0.362,6.21c-0.611,3.521-3.355,5.749-6.644,5.724     C191.024,106.989,188.821,106.475,188.576,105.737z"/>
			<path d="M138.296,88.404c-0.152,1.517-0.234,3.045-0.472,4.549c-0.293,1.856,0.275,3.344,1.567,4.652     c1.298,1.314,2.644,2.599,3.794,4.037c2.498,3.125,2.184,7.079-0.684,9.892c-0.389,0.382-0.844,0.792-1.343,0.941     c-0.47,0.141-1.162,0.121-1.522-0.145c-0.262-0.194-0.282-0.942-0.164-1.376c0.304-1.11,0.754-2.179,1.13-3.27     c0.513-1.488,0.281-2.83-0.862-3.953c-1.087-1.068-2.176-2.137-3.299-3.166c-2.341-2.145-3.49-4.708-2.994-7.932     c0.197-1.277,0.22-2.579,0.384-3.862c0.26-2.039-0.334-3.734-1.879-5.099c-2.41-2.129-3.917-4.895-5.293-7.723     c-0.384-0.789-0.539-1.771-0.502-2.651c0.018-0.423,0.669-0.997,1.148-1.153c0.264-0.086,0.843,0.489,1.145,0.873     c1.418,1.805,2.736,3.692,4.199,5.458c0.729,0.88,1.71,1.548,2.549,2.342C137.37,82.875,138.434,85.388,138.296,88.404z"/>
		</g>
	</g>
</g>















</svg>
